<?xml version="1.0" standalone="no"?><!DOCTYPE svg PUBLIC "-//W3C//DTD SVG 1.1//EN" "http://www.w3.org/Graphics/SVG/1.1/DTD/svg11.dtd"><svg t="1683538477399" class="icon" viewBox="0 0 1024 1024" version="1.1" xmlns="http://www.w3.org/2000/svg" p-id="1436" width="16" height="16" xmlns:xlink="http://www.w3.org/1999/xlink"><path d="M900.029298 961.997982H166.672092a50.001628 50.001628 0 0 1 0-100.003256h733.357206a50.001628 50.001628 0 0 1 0 100.003256zM528.650542 88.86956c-183.805983 0-333.344184 149.538201-333.344184 333.344184v406.446564h666.688368V422.213744c0-183.805983-149.538201-333.344184-333.344184-333.344184z m-33.334418 211.140206a33.334418 33.334418 0 1 1 66.668836 0v233.340929a33.334418 33.334418 0 1 1-66.668836 0V300.009766zM533.350695 684.722289a52.068362 52.068362 0 1 1 0-104.103389 52.068362 52.068362 0 0 1 0 104.103389z" p-id="1437" fill="#ff0000"></path></svg>