<?xml version="1.0" standalone="no"?><!DOCTYPE svg PUBLIC "-//W3C//DTD SVG 1.1//EN" "http://www.w3.org/Graphics/SVG/1.1/DTD/svg11.dtd"><svg t="1683370524299" class="icon" viewBox="0 0 1024 1024" version="1.1" xmlns="http://www.w3.org/2000/svg" p-id="1334" width="15" height="15" xmlns:xlink="http://www.w3.org/1999/xlink"><path stroke="null" id="svg_1" p-id="1335" fill="#79a7b8" d="m189.504,936a32,32 0 0 1 -32,-32l0,-192a32,32 0 0 1 32,-32l608,0a32,32 0 0 1 32,32l0,55.264l48,0l0,-71.264c0,-15.232 -5.536,-28.992 -14.4,-40c8.864,-10.976 14.4,-24.768 14.4,-40l0,-224c0,-15.232 -5.536,-28.992 -14.4,-40c8.864,-10.976 14.4,-24.768 14.4,-40l0,-224a64,64 0 0 0 -64,-64l-640,0a64,64 0 0 0 -64,64l0,224c0,15.232 5.536,29.024 14.4,40c-8.864,11.008 -14.4,24.768 -14.4,40l0,224c0,15.264 5.536,29.024 14.4,40c-8.864,11.008 -14.4,24.768 -14.4,40l0,224a64,64 0 0 0 64,64l477.248,0l0,-48l-461.248,0zm-32,-832a32,32 0 0 1 32,-32l608,0a32,32 0 0 1 32,32l0,192a32,32 0 0 1 -32,32l-608,0a32,32 0 0 1 -32,-32l0,-192zm0,304a32,32 0 0 1 32,-32l608,0a32,32 0 0 1 32,32l0,192a32,32 0 0 1 -32,32l-608,0a32,32 0 0 1 -32,-32l0,-192zm64,-200l0,-16a16,16 0 0 1 16,-16l96,0a16,16 0 0 1 16,16l0,16a16,16 0 0 1 -16,16l-96,0a16,16 0 0 1 -16,-16zm128,592l0,16a16,16 0 0 1 -16,16l-96,0a16,16 0 0 1 -16,-16l0,-16a16,16 0 0 1 16,-16l96,0a16,16 0 0 1 16,16zm-128,-288l0,-16a16,16 0 0 1 16,-16l96,0a16,16 0 0 1 16,16l0,16a16,16 0 0 1 -16,16l-96,0a16,16 0 0 1 -16,-16z"></path>
  <path stroke="null" id="svg_2" p-id="1336" fill="#79a7b8" d="m858.1403,941.33759l-40.54685,-41.68077s-4.9396,-4.22814 -1.59191,-9.6094c3.41792,-8.31213 5.1737,-17.24887 5.15029,-26.28171c0,-37.5247 -29.59078,-67.93845 -66.08763,-67.93845c-6.13353,0 -12.24365,0.88887 -18.11967,2.66661c-4.9396,1.75372 -1.42804,5.42931 -1.42804,5.42931l30.45696,31.30262c9.78556,10.06585 9.78556,26.35378 0,36.3956l-2.94971,3.02696c-4.7055,4.82872 -11.07313,7.54338 -17.69828,7.54338c-6.64856,0 -13.0162,-2.71466 -17.69828,-7.54338l-30.92517,-31.78309s-3.16041,-2.71466 -4.84596,1.36934c-1.87283,6.3422 -2.85607,12.92464 -2.85607,19.55513c0,37.5247 29.59078,67.93845 66.08763,67.93845c9.57486,0 19.00926,-2.13809 27.69453,-6.24611c3.8159,-2.01797 6.64856,1.29727 6.64856,1.29727l41.41304,42.61769c3.97977,4.10802 9.64509,6.0299 15.21678,5.16505c5.57168,-0.86485 13.95261,-1.29727 17.0662,-17.2729c0.93642,-5.83771 -0.91301,-11.77151 -4.98642,-15.9516z"></path></svg>