<?xml version="1.0" standalone="no"?><!DOCTYPE svg PUBLIC "-//W3C//DTD SVG 1.1//EN" "http://www.w3.org/Graphics/SVG/1.1/DTD/svg11.dtd"><svg t="1683516359711" class="icon" viewBox="0 0 1024 1024" version="1.1" xmlns="http://www.w3.org/2000/svg" p-id="2030" xmlns:xlink="http://www.w3.org/1999/xlink" width="16" height="16"><path d="M294.208 729.12V323.488h125.696V716.48c20.672-3.936 41.696-8.64 62.848-14.24V310.368c0-27.52-22.304-49.824-49.824-49.824H281.184a49.856 49.856 0 0 0-49.888 49.792v414.048c16.896 2.784 37.664 4.64 62.848 4.736z m125.728 115.072v44.928H294.24v-34.368a536.416 536.416 0 0 1-62.88-3.616v50.976c0 27.52 22.304 49.824 49.856 49.824h151.776c27.52 0 49.792-22.304 49.792-49.792v-70.336c-21.184 4.864-42.112 8.992-62.848 12.384z m188.544-184.768V134.88h125.696v458.944a515.2 515.2 0 0 0 62.88-47.424V121.824c0-27.52-22.304-49.792-49.792-49.824H595.52a49.792 49.792 0 0 0-49.856 49.792v561.504a927.84 927.84 0 0 0 62.848-23.872z m125.728 79.808v149.92h-125.728v-94.688a1158.816 1158.816 0 0 1-62.848 20.736v86.976c0 27.52 22.336 49.824 49.856 49.824h151.776c27.552 0 49.792-22.336 49.792-49.824v-199.36c-19.808 12.704-40.736 24.832-62.816 36.416z m213.12-297.728c-13.568-39.776-55.52-66.784-115.744-80.288v64.736c32.64 9.28 51.2 22.784 55.616 35.68 6.4 18.784-11.2 59.2-65.024 107.136-63.072 56.192-160.416 108.928-267.168 144.672-90.688 30.368-183.648 47.136-261.824 47.136-96.352 0-148.672-24.64-156.512-47.584-6.208-18.176 10.208-56.672 60.096-102.592v-81.792c-92.032 68.768-140.672 144.48-120.192 204.512 20.256 59.328 103.52 90.304 216.64 90.304 82.432 0 180.8-16.448 282.144-50.4 240.448-80.544 406.976-228.928 371.904-331.52z" p-id="2031" fill="#79a7b8"></path></svg>