<?xml version="1.0" standalone="no"?><!DOCTYPE svg PUBLIC "-//W3C//DTD SVG 1.1//EN" "http://www.w3.org/Graphics/SVG/1.1/DTD/svg11.dtd"><svg t="1683364708525" class="icon" viewBox="0 0 1024 1024" version="1.1" xmlns="http://www.w3.org/2000/svg" p-id="6994" xmlns:xlink="http://www.w3.org/1999/xlink" width="14" height="14"><path d="M707.453837 512.436478c140.109426 0 251.411307 89.914461 251.411307 203.398731s-111.301881 203.398731-251.411307 203.398731-250.974829-90.350939-250.974829-203.398731 111.301881-203.398731 250.974829-203.398731m0-52.377356c-174.591186 0-315.573568 114.793704-315.573568 255.776087s142.291816 255.776087 315.573568 255.776087 316.010046-115.230182 316.010046-255.776087-142.291816-254.466653-316.010046-254.466653zM230.383423 550.846539h147.96603a994.73328 994.73328 0 0 1 76.820121-77.693078H230.383423a140.545904 140.545904 0 0 1 0-281.091808h491.037709a153.640243 153.640243 0 1 0 0-76.820122H230.383423a218.238982 218.238982 0 0 0 0 436.477964zM869.82364 75.958514a76.820122 76.820122 0 1 1-76.383644 78.566034 75.510688 75.510688 0 0 1 76.383644-78.566034zM372.675239 831.938347H302.402287a153.640243 153.640243 0 1 0 0 76.820122h130.943389a275.854073 275.854073 0 0 1-60.670437-76.820122z m-218.67546 116.976095a76.820122 76.820122 0 1 1 76.383644-78.566034 75.510688 75.510688 0 0 1-76.383644 78.566034z" p-id="6995" fill="#79a7b8"></path><path d="M707.453837 717.144643m-100.389931 0a100.389932 100.389932 0 1 0 200.779863 0 100.389932 100.389932 0 1 0-200.779863 0Z" p-id="6996" fill="#79a7b8"></path></svg>