<?xml version="1.0" standalone="no"?><!DOCTYPE svg PUBLIC "-//W3C//DTD SVG 1.1//EN" "http://www.w3.org/Graphics/SVG/1.1/DTD/svg11.dtd"><svg t="1683626182892" class="icon" viewBox="0 0 1024 1024" version="1.1" xmlns="http://www.w3.org/2000/svg" p-id="8216" width="12" height="12" xmlns:xlink="http://www.w3.org/1999/xlink"><path d="M727.047 160.188c-5.797-3.61-13.344 0.656-13.344 7.437v57.203c0 2.844 1.313 5.36 3.61 7.11 84.875 62.89 139.78 163.843 139.562 277.593-0.328 191.297-155.094 344.86-346.39 343.875-189.438-0.984-342.673-154.875-342.673-344.531 0-113.531 54.907-214.156 139.563-276.938 2.188-1.64 3.61-4.265 3.61-7.109v-57.203c0-6.781-7.438-11.047-13.344-7.438-116.922 71.641-195.235 200.157-196.547 347.047-1.969 223.782 181.562 411.907 405.344 415.079 229.906 3.171 417.156-182.22 417.156-411.25 0-148.422-78.64-278.579-196.547-350.875z" fill="#606266" p-id="8217"></path><path d="M492.656 526.375h43.75c4.813 0 8.75-3.938 8.75-8.75V110.75c0-4.813-3.937-8.75-8.75-8.75h-43.75c-4.812 0-8.75 3.938-8.75 8.75v406.875c0 4.813 3.938 8.75 8.75 8.75z" fill="#606266" p-id="8218"></path></svg>
