<svg xmlns="http://www.w3.org/2000/svg" xmlns:xlink="http://www.w3.org/1999/xlink" t="1683529434403" class="icon" viewBox="0 0 1479 1024" version="1.1" p-id="5161" width="15" height="16"><path d="m941.02267,67.51546l-409.6,0l-250.312,0l0,639.6097l910.223,0l0,-639.61082l-250.311,0.00112l250.311,0m-967.111,-0.00112c0,-38.37732 22.755,-63.96221 56.888,-63.96221l227.556,0l455.111,0.00225l227.556,0c34.133,0 56.889,31.97998 56.889,63.96108l0,639.6097c0,38.3762 -22.756,63.95996 -56.89,63.95996l-910.221,0c-28.444,0 -56.888,-31.97998 -56.888,-63.95996l0,-639.61082l-0.001,0zm1251.553,677.98702c0,153.50592 -329.955,275.03187 -739.555,275.03187s-739.554,-121.52594 -739.554,-275.03074c0,-63.96221 56.889,-121.52707 147.911,-166.29949l22.756,57.56486c-79.645,38.3762 -113.778,76.7524 -113.778,108.73238c0,95.94219 307.2,211.07191 682.667,211.07191s682.666,-115.12972 682.666,-211.07078c0,-25.58488 -34.133,-70.3573 -113.778,-108.7335l22.756,-57.56486c91.022,44.77242 147.911,102.33728 147.911,166.29724l-0.002,0.00112zm-1991.108,-908.24646c-62.578,0 0,0 0,0" fill="#79a7b8" id="svg_1"/>
  <path id="svg_2" fill="#79a7b8" d="m487.62935,577.84998l0,-163.48932c0,-16.85604 13.03092,-30.49801 29.2167,-30.49801l1.37168,0c16.11719,0 29.2167,13.64197 29.2167,30.49801l0,163.56074a29.28528,30.49801 0 0 1 -29.2167,30.42658l-1.37168,0a29.28528,30.49801 0 0 1 -29.2167,-30.49801zm219.46814,0l0,-238.34157c0,-16.78462 13.03092,-30.42658 29.2167,-30.42658l1.37168,0c16.11719,0 29.2167,13.57054 29.2167,30.42658l0,238.34157a29.28528,30.49801 0 0 1 -29.2167,30.49801l-1.37168,0a29.28528,30.49801 0 0 1 -29.2167,-30.49801zm219.46814,0l0,-387.97465c0,-16.85604 13.03092,-30.49801 29.2167,-30.49801l1.37168,0c16.11719,0 29.2167,13.64197 29.2167,30.49801l0,387.97465a29.28528,30.49801 0 0 1 -29.2167,30.49801l-1.37168,0a29.28528,30.49801 0 0 1 -29.2167,-30.49801z"/></svg>